<?xml version="1.0" standalone="no"?>
<!DOCTYPE svg PUBLIC "-//W3C//DTD SVG 20010904//EN"
 "http://www.w3.org/TR/2001/REC-SVG-20010904/DTD/svg10.dtd">
<svg version="1.0" xmlns="http://www.w3.org/2000/svg"
 width="876.000000pt" height="876.000000pt" viewBox="0 0 876.000000 876.000000"
 preserveAspectRatio="xMidYMid meet">
<metadata>
Created by potrace 1.11, written by Peter Selinger 2001-2013
</metadata>
<g transform="translate(0.000000,876.000000) scale(0.100000,-0.100000)"
fill="#000000" stroke="none">
<path d="M3059 8636 c-2 -2 -44 -6 -94 -10 -49 -3 -106 -8 -125 -11 -111 -15
-178 -25 -200 -30 -14 -3 -41 -8 -60 -11 -19 -3 -38 -8 -41 -10 -3 -2 -21 -6
-39 -9 -99 -17 -359 -99 -505 -159 -388 -159 -739 -391 -1036 -686 -127 -125
-176 -180 -284 -311 -131 -161 -315 -474 -410 -699 -15 -36 -33 -78 -40 -95
-65 -153 -157 -512 -180 -702 -19 -156 -25 -255 -25 -423 1 -180 9 -306 25
-389 2 -14 7 -45 10 -70 3 -25 7 -53 9 -61 1 -8 6 -33 10 -55 50 -263 153
-559 281 -810 247 -485 606 -891 1055 -1192 275 -184 346 -211 437 -164 71 36
110 119 93 198 -15 65 -49 97 -187 175 -336 192 -678 512 -902 847 -233 348
-378 717 -442 1131 -19 119 -23 187 -24 375 0 203 7 348 20 410 3 11 7 38 10
59 3 21 7 48 10 60 3 12 7 32 9 46 2 14 16 72 31 130 204 789 738 1440 1480
1805 175 86 297 135 451 181 106 31 235 63 284 70 19 3 42 7 50 9 8 2 38 7 65
11 28 3 59 8 69 10 130 24 557 25 741 0 575 -76 1089 -303 1520 -670 403 -345
702 -801 857 -1312 41 -133 59 -165 112 -195 40 -23 47 -23 361 -25 176 -1
347 -5 380 -8 33 -4 72 -9 86 -11 118 -14 301 -66 439 -125 233 -100 431 -244
605 -441 86 -96 98 -112 159 -208 141 -224 222 -462 252 -736 11 -106 0 -347
-21 -437 -2 -13 -7 -36 -10 -53 -12 -64 -17 -81 -47 -169 -187 -552 -634 -961
-1210 -1107 -136 -34 -176 -57 -208 -119 -58 -114 26 -253 153 -254 113 0 391
90 587 190 483 246 854 673 1019 1172 29 90 74 275 86 357 11 73 14 429 5 495
-5 36 -12 81 -14 100 -3 19 -10 58 -16 85 -7 28 -13 57 -15 65 -33 160 -129
392 -230 560 -314 520 -845 877 -1450 975 -142 23 -181 26 -445 30 -129 1
-238 3 -241 4 -3 1 -11 20 -18 44 -25 82 -104 273 -162 392 -335 683 -913
1225 -1629 1528 -141 60 -406 146 -532 173 -60 13 -177 35 -208 40 -19 3 -42
7 -50 9 -8 2 -49 7 -90 11 -41 3 -79 9 -83 11 -11 6 -481 15 -488 9z"/>
<path d="M4684 4911 c-45 -20 -66 -46 -178 -211 -42 -63 -136 -200 -207 -305
-72 -104 -164 -239 -205 -300 -41 -60 -97 -141 -123 -180 -27 -38 -147 -214
-267 -390 -120 -176 -260 -381 -310 -455 -245 -358 -323 -477 -329 -503 -12
-48 4 -115 37 -153 65 -73 -18 -68 1081 -68 543 0 987 -4 987 -8 0 -4 -23 -40
-51 -80 -28 -40 -167 -244 -309 -453 -143 -209 -264 -387 -270 -395 -6 -8 -59
-87 -119 -175 -60 -88 -131 -191 -158 -230 -26 -38 -97 -142 -157 -230 -60
-88 -142 -209 -183 -269 -42 -60 -81 -124 -89 -142 -48 -116 45 -245 176 -244
32 0 100 32 121 56 9 10 113 161 231 334 118 173 248 365 290 425 130 190 257
376 336 493 71 104 257 377 282 412 31 45 255 374 334 490 90 134 91 135 91
196 0 73 -27 120 -90 156 l-40 23 -992 0 c-658 0 -989 3 -985 10 3 6 83 123
177 260 94 138 220 322 280 410 60 88 127 187 150 220 81 117 374 547 640 938
53 77 97 153 101 173 27 143 -118 256 -252 195z"/>
</g>
</svg>
